/* XPM */
static char *freeimage[] = {
/* width height num_colors chars_per_pixel */
"32 32 210 2",
/* colors */
"   c #ffffff",
" . c #fefbfb",
" X c #f9e6e6",
" o c #fefcfc",
" O c #eeb7b7",
" + c #d03b3b",
" @ c #ca1b1b",
" # c #d03737",
" $ c #edb5b5",
" % c #f0c0c0",
" & c #ca1c1c",
" * c #c81414",
" = c #c81616",
" - c #eec0c0",
" ; c #d24343",
" : c #cb3a3a",
" > c #fefdfd",
" , c #f0c1c1",
" < c #c91616",
" 1 c #c71414",
" 2 c #e9bfbf",
" 3 c #fefefe",
" 4 c #db6767",
" 5 c #d26363",
" 6 c #fbfbfb",
" 7 c #f4f4f4",
" 8 c #f9e9e9",
" 9 c #cb2121",
" 0 c #c31414",
" q c #c31a1a",
" w c #f7ecec",
" e c #dadada",
" r c #eeeeee",
" t c #e79999",
" y c #bf5e5e",
" u c #ce3232",
" i c #de9494",
" p c #ececec",
" a c #cdcdcd",
" s c #e6e6e6",
" d c #d14040",
" f c #c51414",
" g c #d6b4b4",
" h c #e28787",
" j c #d46262",
" k c #e1e1e1",
" l c #c2c2c2",
" z c #e0e0e0",
" x c #fdfdfd",
" c c #f2c8c8",
" v c #c91717",
" b c #b42323",
" n c #faf9f9",
" m c #f6dbdb",
" M c #c81515",
" N c #da6b6b",
" B c #d1c6c6",
" V c #bdbdbd",
" C c #dbdbdb",
" Z c #f9f9f9",
" A c #dd6e6e",
" S c #c37171",
" D c #d34747",
" F c #c91a1a",
" G c #de8b8b",
" H c #c9c5c5",
" J c #bbbbbb",
" K c #d1caca",
" L c #faeded",
" P c #cb2424",
" I c #c11313",
" U c #ddc6c6",
" Y c #ebaeae",
" T c #dea7a7",
" R c #c2c0c0",
" E c #ccc4c4",
" W c #c14242",
" Q c #f6e8e8",
" ! c #e9a0a0",
" ~ c #b53030",
" ^ c #e3e2e2",
" / c #c7c5c5",
" ( c #c75c5c",
" ) c #dc8d8d",
" _ c #d34545",
" ` c #c88383",
" ' c #d8d8d8",
" ] c #bcbcbc",
" [ c #c1c1c1",
" { c #cb8080",
" } c #c71515",
" | c #c73131",
".  c #fdfcfc",
".. c #f3cece",
".X c #c91818",
".o c #bc1313",
".O c #e7d8d8",
".+ c #f7f7f7",
".@ c #cccccc",
".# c #cfa1a1",
".$ c #c51818",
".% c #e7baba",
".& c #df7676",
".* c #ba4444",
".= c #f0f0f0",
".- c #c3c3c3",
".; c #d6d6d6",
".: c #c73333",
".> c #d05b5b",
"., c #fbf0f0",
".< c #cd2727",
".1 c #d03838",
".2 c #d6bdbd",
".3 c #bebebe",
".4 c #d0d0d0",
".5 c #de7575",
".6 c #c31717",
".7 c #f4e3e3",
".8 c #eaa7a7",
".9 c #d44a4a",
".0 c #d5c4c4",
".q c #bfbfbf",
".w c #eecdcd",
".e c #cd2b2b",
".r c #da8888",
".t c #d54c4c",
".y c #d34f4f",
".u c #d1c0c0",
".i c #d4c6c6",
".p c #d65f5f",
".a c #c62c2c",
".s c #fdfbfb",
".d c #f4d4d4",
".f c #c91919",
".g c #d0a6a6",
".h c #f6f6f6",
".j c #dddddd",
".k c #cdc0c0",
".l c #c63e3e",
".z c #e6b4b4",
".x c #e07d7d",
".c c #b51a1a",
".v c #f5f1f1",
".b c #d2d2d2",
".n c #c0c0c0",
".m c #d9d9d9",
".M c #ead1d1",
".N c #ce5555",
".B c #fcf3f3",
".V c #be5d5d",
".C c #c4c4c4",
".Z c #c41515",
".A c #f3dfdf",
".S c #ecaeae",
".D c #d4afaf",
".F c #cacaca",
".G c #e2e2e2",
".H c #e9a1a1",
".J c #d98282",
".K c #d75252",
".L c #b42222",
".P c #faf8f8",
".I c #f5f5f5",
".U c #d1d1d1",
".Y c #e9e9e9",
".T c #c91d1d",
".R c #c52828",
".E c #fcf9f9",
".W c #f6d9d9",
".Q c #c37373",
".! c #c8c8c8",
".~ c #d7d7d7",
".^ c #efefef",
"./ c #da6565",
".( c #e4afaf",
".) c #e28585",
"._ c #c01313",
".` c #dfcbcb",
".' c #dcdcdc",
".] c #efbbbb",
".[ c #cd5656",
".{ c #d13939",
".} c #ba4040",
".| c #dedddd",
"X  c #cd2e2e",
"X. c #bf1a1a",
"XX c #fbf7f7",
"Xo c #fdf6f6",
"XO c #ca1f1f",
"X+ c #d7b7b7",
"X@ c #cfcfcf",
"X# c #e7e7e7",
"X$ c #e38f8f",
"X% c #bb1313",
"X& c #f2e9e9",
"X* c #d25a5a",
"X= c #dc9696",
"X- c #faefef",
"X; c #c72525",
"X: c #b24949",
"X> c #f8f0f0",
"X, c #c76767",
"X< c #b01b1b",
"X1 c #d17878",
"X2 c #cccaca",
"X3 c #e8c5c5",
"X4 c #b93939",
"X5 c #ad1919",
"X6 c #b75e5e",
"X7 c #f0e9e9",
/* pixels */
"                             . X X o                            ",
"                           O + @ @ # $                          ",
"                         % & * * * * = -                        ",
"                       . ; * * * * * * : >                      ",
"                       , < * * * * * * 1 2           3          ",
"                       4 * * * * * * * * 5         6 7 3        ",
"                     8 9 * * * 0 1 * * * q w     7 e r          ",
"                     t * * * * y u * * * * i   p a s 3          ",
"                   o d * * * f g h * * * * j k l z x            ",
"                   c v * * * b n m M * = N B V C Z              ",
"                   A * * * * S     D F G H J K 7                ",
"                 L P * * * I U     Y T R J E W Q                ",
"                 ! * * * * ~ 3   3 ^ V J / ( * )                ",
"               > _ * * * * `   x ' ] J [ { } * |.               ",
"              ...X * * *.o.O.+.@ J J V.#.$ * * 1.%              ",
"              .& * * * *.*.=.- J J J.;.: * * * *.>              ",
"            .,.< * * *.1.2.3 J J J.4.=.5 * * * *.6.7            ",
"            .8 M * *.9.0 ] J J J J.q e.w.e * * * *.r            ",
"           3.t * * *.y.u [ J J J J J J.3.i.p * * *.a.s          ",
"          .d.f * * * 1.g.h.j l J J J J ].k.l * * * 1.z          ",
"          .x * * * *.c.v   x.b J J J.n.m.M * * * * *.N          ",
"        .B.e * * * *.V     k J J J.C.j.h  .9 * * * *.Z.A        ",
"        .S M * * * f.D   p V J J.F.G 6    .H * * * * *.J        ",
"       3.K * * * *.L.P.I.n J ].U.Y 3      .,.T * * * *.R.E      ",
"      .W @ * * * *.Q 6.! J.3.~.^            ./ * * * * *.(      ",
"      .) * * * *._.`.b J.C.'.I              .] * * * * *.[      ",
"     >.{ * * * *.}.| J.F k 6                 .X  * * * *X.XX    ",
"    XoXO * * *XOX+ VX@X# x                    X$ * * * *X%X&    ",
"      X* * * vX= l.; r                        X-X; * * *X: 3    ",
"      X>X,X<X1X2.' 7                            X3X4X5X6X7      ",
"           x.j z Z                                              ",
"          .I.Y x                                                "
};
