/* XPM */
static char *freeimage[] = {
/* width height num_colors chars_per_pixel */
"64 64 421 2",
/* colors */
"   c #ffffff",
" . c #fefefe",
" X c #fbf0f0",
" o c #f5d5d5",
" O c #f2c9c9",
" + c #f2c8c8",
" @ c #fcf3f3",
" # c #f8e1e1",
" $ c #e28484",
" % c #d23e3e",
" & c #cc2626",
" * c #cb2020",
" = c #cc2525",
" - c #d03838",
" ; c #e07e7e",
" : c #f8e5e5",
" > c #efbebe",
" , c #d13f3f",
" < c #c91717",
" 1 c #c81414",
" 2 c #c91616",
" 3 c #cf3131",
" 4 c #f0c2c2",
" 5 c #f2c7c7",
" 6 c #cf3232",
" 7 c #ca1f1f",
" 8 c #f2cdcd",
" 9 c #fbefef",
" 0 c #d54c4c",
" q c #c81515",
" w c #ca3939",
" e c #fcf8f8",
" r c #e89c9c",
" t c #ca1b1b",
" y c #c71414",
" u c #dd9797",
" i c #fbeeee",
" p c #d24040",
" a c #c02c2c",
" s c #ecaeae",
" d c #ca1d1d",
" f c #c41414",
" g c #e1b0b0",
" h c #fefcfc",
" j c #d95b5b",
" k c #c65252",
" l c #f4d3d3",
" z c #cd2929",
" x c #bc1515",
" c c #f1dfdf",
" v c #fbfbfb",
" b c #fcfcfc",
" n c #e38989",
" m c #c61414",
" M c #d38686",
" N c #eeeeee",
" B c #e8e8e8",
" V c #f2f2f2",
" C c #d23f3f",
" Z c #be2f2f",
" A c #fdfafa",
" S c #fdfdfd",
" D c #e4e4e4",
" F c #d5d5d5",
" G c #e5e5e5",
" H c #f0f0f0",
" J c #edb4b4",
" K c #cb1e1e",
" L c #b51818",
" P c #c51414",
" I c #c31414",
" U c #e2b6b6",
" Y c #d9d9d9",
" T c #cacaca",
" R c #fefdfd",
" E c #da6464",
" W c #c01313",
" Q c #b47e7e",
" ! c #c92727",
" ~ c #c85858",
" ^ c #f7f7f7",
" / c #d2d2d2",
" ( c #c2c2c2",
" ) c #e3e3e3",
" _ c #e1e1e1",
" ` c #f6d9d9",
" ' c #ce2c2c",
" ] c #a41212",
" [ c #e3d7d7",
" { c #df7979",
" } c #bd1616",
" | c #f2e1e1",
".  c #bebebe",
".. c #e0e0e0",
".X c #dcdcdc",
".o c #e59191",
".O c #c91818",
".+ c #9e4040",
".@ c #f3cdcd",
".# c #d48989",
".$ c #eaeaea",
".% c #bcbcbc",
".& c #d8d8d8",
".* c #d24444",
".= c #bc1313",
".- c #bc9494",
".; c #d13c3c",
".: c #cf3333",
".> c #e8b8b8",
"., c #bdbdbd",
".< c #bbbbbb",
".1 c #d0d0d0",
".2 c #dedede",
".3 c #eebaba",
".4 c #9f1515",
".5 c #ede6e6",
".6 c #e48f8f",
".7 c #d65151",
".8 c #eecccc",
".9 c #d1cbcb",
".0 c #c8c8c8",
".q c #e9e9e9",
".w c #dc6b6b",
".e c #a35151",
".r c #c81818",
".t c #c91a1a",
".y c #dd6f6f",
".u c #ecd7d7",
".i c #c9c5c5",
".p c #c3c3c3",
".a c #e2e2e2",
".s c #f7dede",
".d c #ce2e2e",
".f c #b71212",
".g c #c5a6a6",
".h c #d65050",
".j c #e48d8d",
".k c #e7d8d8",
".l c #c3c1c1",
".z c #dfdfdf",
".x c #e69696",
".c c #c91919",
".v c #9a1c1c",
".b c #f6f2f2",
".n c #eaa5a5",
".m c #eaa8a8",
".M c #e0d5d5",
".N c #bfbebe",
".B c #d9d5d5",
".V c #ceb8b8",
".C c #fcf6f6",
".Z c #d44949",
".A c #a86262",
".S c #cb2121",
".D c #d34242",
".F c #eec1c1",
".G c #d5cece",
".H c #d2cfcf",
".J c #ce9e9e",
".K c #b52f2f",
".L c #fbf6f6",
".P c #f0bfbf",
".I c #cb2222",
".U c #b11212",
".Y c #d1baba",
".T c #edd4d4",
".R c #cbc6c6",
".E c #cac9c9",
".W c #d8bbbb",
".Q c #bd2626",
".! c #dfabab",
".~ c #dd7070",
".^ c #9a2525",
"./ c #faf9f9",
".( c #ebe7e7",
".) c #c4c1c1",
"._ c #decece",
".` c #bc3838",
".' c #c54d4d",
".] c #f8e2e2",
".[ c #c31313",
".{ c #af7575",
".} c #bfbfbf",
".| c #dfd8d8",
"X  c #be5656",
"X. c #c61515",
"XX c #be1414",
"Xo c #efd7d7",
"XO c #e89d9d",
"X+ c #aa1111",
"X@ c #dbcbcb",
"X# c #bdbcbc",
"X$ c #dad7d7",
"X% c #c47777",
"X& c #c51717",
"X* c #d07979",
"X= c #fdf8f8",
"X- c #d44b4b",
"X; c #9b3333",
"X: c #d2d0d0",
"X> c #cd9999",
"X, c #c11b1b",
"X< c #bd2222",
"X1 c #faf4f4",
"X2 c #f1c5c5",
"X3 c #cc2424",
"X4 c #bf1313",
"X5 c #b78888",
"X6 c #c5c5c5",
"X7 c #d7b7b7",
"X8 c #bd2424",
"X9 c #dda5a5",
"X0 c #df7676",
"Xq c #c81616",
"Xw c #a31212",
"Xe c #e6dbdb",
"Xr c #c0c0c0",
"Xt c #c4c4c4",
"Xy c #ddcccc",
"Xu c #c44747",
"Xi c #f9e6e6",
"Xp c #cf3434",
"Xa c #a04444",
"Xs c #e1e0e0",
"Xd c #bd5151",
"Xf c #ecd2d2",
"Xg c #e9a3a3",
"Xh c #c4a2a2",
"Xj c #f6f6f6",
"Xk c #dbdbdb",
"Xl c #d35656",
"Xz c #ce7272",
"Xx c #fdf9f9",
"Xc c #d65252",
"Xv c #c91b1b",
"Xb c #c86e6e",
"Xn c #edebeb",
"Xm c #c9c9c9",
"XM c #dddddd",
"XN c #f4f4f4",
"XB c #ebacac",
"XV c #bc2020",
"XC c #faf2f2",
"XZ c #f3cbcb",
"XA c #cb2323",
"XS c #e2dada",
"XD c #c1c1c1",
"XF c #c6c6c6",
"XG c #ededed",
"XH c #f1f1f1",
"XJ c #fcf4f4",
"XK c #db9f9f",
"XL c #e07c7c",
"XP c #d03535",
"XI c #ecb7b7",
"XU c #dad2d2",
"XY c #bebdbd",
"XT c #e7e7e7",
"XR c #c34242",
"XE c #f9e9e9",
"XW c #ebbbbb",
"XQ c #d0caca",
"X! c #f4dede",
"X~ c #da6262",
"X^ c #eacccc",
"X/ c #eba9a9",
"X( c #ca1c1c",
"X) c #cd2727",
"X_ c #e9c4c4",
"X` c #cecaca",
"X' c #e2d8d8",
"X] c #eec6c6",
"X[ c #cd6d6d",
"X{ c #fefbfb",
"X} c #d75757",
"X| c #cf3a3a",
"o  c #d79999",
"o. c #e5e3e3",
"oX c #bcbbbb",
"oo c #e6cdcd",
"oO c #cc2b2b",
"o+ c #bd1e1e",
"o@ c #f8f0f0",
"o# c #f3cfcf",
"o$ c #cc2727",
"o% c #9c2c2c",
"o& c #f7f6f6",
"o* c #ebebeb",
"o= c #d4d4d4",
"o- c #d4d2d2",
"o; c #d2a5a5",
"o: c #c51e1e",
"o> c #d99a9a",
"o, c #e18484",
"o< c #c21313",
"o1 c #b07676",
"o2 c #fafafa",
"o3 c #ececec",
"o4 c #c99494",
"o5 c #bc2222",
"o6 c #c13c3c",
"o7 c #faecec",
"o8 c #d03b3b",
"o9 c #ab1111",
"o0 c #dac9c9",
"oq c #f5f5f5",
"ow c #c7c7c7",
"oe c #dd8d8d",
"or c #c11313",
"ot c #e8c6c6",
"oy c #ecafaf",
"ou c #9c3030",
"oi c #fdfcfc",
"op c #cdcdcd",
"oa c #f8e4e4",
"os c #cb6767",
"od c #d95c5c",
"of c #b37f7f",
"og c #d3d3d3",
"oh c #d75656",
"oj c #bc1b1b",
"ok c #f7ecec",
"ol c #f4d4d4",
"oz c #a71111",
"ox c #e0d2d2",
"oc c #dadada",
"ov c #ebabab",
"ob c #d79393",
"on c #e38a8a",
"om c #9c3737",
"oM c #c03838",
"oN c #bd1313",
"oB c #b78b8b",
"oV c #f9f9f9",
"oC c #cbcbcb",
"oZ c #f8f8f8",
"oA c #e6c1c1",
"oS c #ca1e1e",
"oD c #9f1414",
"oF c #ebe3e3",
"oG c #f1c6c6",
"oH c #ca6161",
"oJ c #cf3636",
"oK c #bc1919",
"oL c #f5e8e8",
"oP c #ce2b2b",
"oI c #b61212",
"oU c #c6a8a8",
"oY c #efefef",
"oT c #d68e8e",
"oR c #991e1e",
"oE c #f7f3f3",
"oW c #f7e0e0",
"oQ c #bf3232",
"o! c #d24343",
"o~ c #ab6b6b",
"o^ c #e5c1c1",
"o/ c #efbdbd",
"o( c #ac1111",
"o) c #d7c5c5",
"o_ c #d1d1d1",
"o` c #ca7171",
"o' c #e07a7a",
"o] c #9d3636",
"o[ c #fcfbfb",
"o{ c #fbf1f1",
"o} c #ca2020",
"o| c #b72d2d",
"O  c #d34545",
"O. c #bf1717",
"OX c #c49e9e",
"Oo c #dd7272",
"OO c #b41212",
"O+ c #f0e4e4",
"O@ c #faebeb",
"O# c #cd2b2b",
"O$ c #c35959",
"O% c #eae8e8",
"O& c #cecece",
"O* c #f4d5d5",
"O= c #c71515",
"O- c #e1cccc",
"O; c #fbf2f2",
"O: c #cc2929",
"O> c #d03f3f",
"O, c #e8d5d5",
"O< c #d45353",
"O1 c #eadfdf",
"O2 c #d65d5d",
"O3 c #eabebe",
"O4 c #edc0c0",
"O5 c #983939",
"O6 c #f1d8d8",
"O7 c #ba1f1f",
"O8 c #e8a3a3",
"O9 c #d4cfcf",
"O0 c #cc5959",
"Oq c #9b1313",
"Ow c #d2c1c1",
"Oe c #e4c4c4",
"Or c #ad2424",
"Ot c #e18585",
"Oy c #ddd6d6",
"Ou c #f6eaea",
"Oi c #b43b3b",
"Op c #931717",
"Oa c #c4aaaa",
"Os c #f2e8e8",
"Od c #b97e7e",
"Of c #9b2a2a",
"Og c #941a1a",
"Oh c #b76565",
"Oj c #e4dddd",
"Ok c #f9f4f4",
"Ol c #c08c8c",
"Oz c #9d3030",
"Ox c #931818",
"Oc c #8f2323",
"Ov c #a36e6e",
"Ob c #e5dcdc",
"On c #e6e6e6",
/* pixels */
"                                                                                                                                ",
"                                                         . X o O + o @                                                          ",
"                                                       # $ % & * * = - ; :                                                      ",
"                                                   . > , < 1 1 1 1 1 1 2 3 4                                                    ",
"                                                   5 6 1 1 1 1 1 1 1 1 1 1 7 8                                                  ",
"                                                 9 0 q 1 1 1 1 1 1 1 1 1 1 1 w e                                                ",
"                                                 r t 1 1 1 1 1 1 1 1 1 1 1 1 y u                                                ",
"                                               i p 1 1 1 1 1 1 1 1 1 1 1 1 1 1 a e                                              ",
"                                               s d 1 1 1 1 1 1 1 1 1 1 1 1 1 1 f g                                              ",
"                                             h j q 1 1 1 1 1 1 1 1 1 1 1 1 1 1 1 k                       . .                    ",
"                                             l z 1 1 1 1 1 1 1 1 1 1 1 1 1 1 1 1 x c                     v b .                  ",
"                                             n < 1 1 1 1 1 1 1 1 1 1 1 1 1 1 1 1 m M                   N B V .                  ",
"                                           X C 1 1 1 1 1 1 1 1 1 1 1 1 1 1 1 1 1 1 Z A             S D F G H                    ",
"                                           J K 1 1 1 1 1 1 1 1 L P 1 1 1 1 1 1 1 1 I U           v Y T D G .                    ",
"                                         R E q 1 1 1 1 1 1 1 W Q ! 1 1 1 1 1 1 1 1 1 ~         ^ / ( ) _ S                      ",
"                                         ` ' 1 1 1 1 1 1 1 1 ] [ { 1 1 1 1 1 1 1 1 1 } |     V T. ...X v                        ",
"                                        .o.O 1 1 1 1 1 1 1 y.+  .@ q 1 1 1 1 1 1 1 1 y.#  .$ (.%.&.X ^                          ",
"                                       @.* 1 1 1 1 1 1 1 1.=.-   R.; 1 1 1 1 1 1 1 q.:.>.X.,.<.1.2 H                            ",
"                                      .3 * 1 1 1 1 1 1 1 1.4.5    .6 1 1 1 1 1 1 <.7.8.9.%.<.0 _.q                              ",
"                                     R.w q 1 1 1 1 1 1 1 m.e       #.r 1 1 1 1.t.y.u.i.<.<.p.a.a S                              ",
"                                    .s.d 1 1 1 1 1 1 1 1.f.g        .h 1 1 1 *.j.k.l.<.<. .z.2 b                                ",
"                                    .x.c 1 1 1 1 1 1 1 1.v.b        .n 1 1 '.m.M.N.<.<.%.B.V ^                                  ",
"                                  .C.Z 1 1 1 1 1 1 1 1 P.A           9.S.D.F.G.%.<.<.<.H.J.K.L                                  ",
"                                  .P.I 1 1 1 1 1 1 1 1.U.Y            .n.T.R.<.<.<.<.E.W.Q f.!                                  ",
"                                 ..~ q 1 1 1 1 1 1 1 1.^./           ..(.).<.<.<.< (._.` y 1.'                                  ",
"                                .] 3 1 1 1 1 1 1 1 1.[.{           S.a.}.<.<.<.<.N.|X X. 1 1XXXo                                ",
"                                XO.c 1 1 1 1 1 1 1 1X+X@         v Y.,.<.<.<.<X#X$X%X& 1 1 1 yX*                                ",
"                              X=X- 1 1 1 1 1 1 1 1 yX; S     . ^.1.<.<.<.<.<.%X:X>X, 1 1 1 1 1X<X1                              ",
"                              X2X3 1 1 1 1 1 1 1 1X4X5     . NX6.<.<.<.<.<.<.EX7X8 1 1 1 1 1 1 fX9                              ",
"                             .X0Xq 1 1 1 1 1 1 1 1XwXe   S GXr.<.<.<.<.<.<XtXy.` 1 1 1 1 1 1 1 1Xu .                            ",
"                            XiXp 1 1 1 1 1 1 1 1 yXa   v Y.,.<.<.<.<.<.<XrXsXdX. 1 1 1 1 1 1 1 1X4Xf                            ",
"                            Xg.t 1 1 1 1 1 1 1 1 }XhXj.1.<.<.<.<.<.<.<.,XkXkXl 1 1 1 1 1 1 1 1 1 yXz                            ",
"                          XxXc 1 1 1 1 1 1 1 1XvXbXnXm.<.<.<.<.<.<.<.< FXMXNXB q 1 1 1 1 1 1 1 1 1XVXC                          ",
"                          XZ = 1 1 1 1 1 1 1XA.6XSXD.<.<.<.<.<.<.<.<XFXGXH .XJ.I 1 1 1 1 1 1 1 1 1 PXK                          ",
"                          XLXq 1 1 1 1 1 qXPXIXUXY.<.<.<.<.<.<.<.<.<.% TXT b ..~ q 1 1 1 1 1 1 1 1 1XR R                        ",
"                        XE - 1 1 1 1 1 1XAXWXQ.%.<.<.<.<.<.<.<.<.<.<.<.<.% T BX!X~.S q 1 1 1 1 1 1 1 WX^                        ",
"                        X/X( 1 1 1 1 1 1X)X_X`XY.<.<.<.<.<.<.<.<.<.<.<.<.<.<.%XFX'X].w.t 1 1 1 1 1 1 1X[                        ",
"                      X{X} 1 1 1 1 1 1 1XqX|o o. /. .<.<.<.<.<.<.<.<.<.<.<.<.<.<oX.)oooO 1 1 1 1 1 1 1o+o@                      ",
"                      o#o$ 1 1 1 1 1 1 1 1 1o%o&Xjo*o=Xr.<.<.<.<.<.<.<.<.<.<.<.<X#o-o;o: 1 1 1 1 1 1 1 Po>                      ",
"                      o, 2 1 1 1 1 1 1 1 1o<o1   .o2Xjo3o=Xr.<.<.<.<.<.<.<.<.<Xr.2o4o5 y 1 1 1 1 1 1 1 1o6 R                    ",
"                    o7o8 1 1 1 1 1 1 1 1 1o9o0       . boqX6.<.<.<.<.<.<.<.<ow...&oe 1 1 1 1 1 1 1 1 1 1orot                    ",
"                    oy d 1 1 1 1 1 1 1 1 1ouoi         bo=.<.<.<.<.<.<.<.%op.a.Xo2oa.t 1 1 1 1 1 1 1 1 1 1os                    ",
"                   hod q 1 1 1 1 1 1 1 1orof         ..2.<.<.<.<.<.<.<.,og.z _ b    oh 1 1 1 1 1 1 1 1 1 1ojok                  ",
"                  ol z 1 1 1 1 1 1 1 1 1ozox       . B. .<.<.<.<.<.<.}ocXk B S      ov q 1 1 1 1 1 1 1 1 1 mob                  ",
"                  on < 1 1 1 1 1 1 1 1 1om       .XH (.<.<.<.<.<.< (...& H          XJXA 1 1 1 1 1 1 1 1 1 1oM R                ",
"                 X C 1 1 1 1 1 1 1 1 1oNoB      oVXm.<.<.<.<.<.%oC.a YoZ              .y 1 1 1 1 1 1 1 1 1 1o<oA                ",
"                 JoS 1 1 1 1 1 1 1 1 1oDoF     b.1.<.<.<.<.<.,og.z _ b                oG q 1 1 1 1 1 1 1 1 1 1oH                ",
"               R E q 1 1 1 1 1 1 1 1 m.e     S.X.%.<.<.<.<XrocXk.q .                   hoJ 1 1 1 1 1 1 1 1 1 1oKoL              ",
"               `oP 1 1 1 1 1 1 1 1 1oIoU   .XT.,.<.<.<.< (.zocoY                        on 1 1 1 1 1 1 1 1 1 1 moT              ",
"              .6.O 1 1 1 1 1 1 1 1 1oRoE .XHXr.<.<.<.<ow _ocXj                          oW.r 1 1 1 1 1 1 1 1 1 1oQoi            ",
"             @o! 1 1 1 1 1 1 1 1 1 fo~  XjX6.<.<.<.%.1..XMo2                               0 1 1 1 1 1 1 1 1 1 1 Wo^            ",
"            o/.S 1 1 1 1 1 1 1 1 1o(o) bo_.<.<.<.}ocXkXT .                                Xg 1 1 1 1 1 1 1 1 1 1 yo`            ",
"            o'Xq 1 1 1 1 1 1 1 1 yo]o[oc.<.<.<.p.z.& H .                                  o{o} 1 1 1 1 1 1 1 1 1 1o|oi          ",
"          X=O  1 1 1 1 1 1 1 1 1O.OX D.,.<.<.0 _ocXj                                        Oo 1 1 1 1 1 1 1 1 1 1OOO+          ",
"          O@O# 1 1 1 1 1 1 1 1 qO$O%Xr.<.%O& _XMoV                                          O*O= 1 1 1 1 1 1 1 1 1.fO-          ",
"          O;O: 1 1 1 1 1 1 1 1O>O,XF.<., F.2 ) b                                              O< 1 1 1 1 1 1 1 1 1ozO1          ",
"            O2 y 1 1 1 1 1 1 zO3.E.<XD.2 Yo* .                                                O4 P 1 1 1 1 1 1 1 mO5 S          ",
"            O6O7 y 1 1 1 1oSO8O9.%ow.. YXj                                                     .O0 m 1 1 1 1 1 yOqOw            ",
"              OeOro< 1 1.OOtOy.,O& _XMo2                                                        OuOi W 1 1 1orOpOa              ",
"                OsOdOfOgOhOjXr F...a b                                                            OkOlOzOxOcOvOb                ",
"                        XNXF.X.X.q S                                                                                            ",
"                      oVo= D.& H                                                                                                ",
"                     ..$OnocoZ                                                                                                  ",
"                     SoY B v                                                                                                    "
};
