/* XPM */
static char *freeimage[] = {
/* width height num_colors chars_per_pixel */
"16 16 97 2",
/* colors */
"   c #ffffff",
" . c #faecec",
" X c #e48d8d",
" o c #fefdfd",
" O c #d54d4d",
" + c #c81414",
" @ c #d24949",
" # c #f2c9c9",
" $ c #c81515",
" % c #eec8c8",
" & c #fdfdfd",
" * c #fcfcfc",
" = c #dd6d6d",
" - c #c42626",
" ; c #c91b1b",
" : c #d86b6b",
" > c #fafafa",
" , c #e0e0e0",
" < c #fbf1f1",
" 1 c #ca1f1f",
" 2 c #d27979",
" 3 c #da6262",
" 4 c #d26a6a",
" 5 c #cfcfcf",
" 6 c #f5f5f5",
" 7 c #e89f9f",
" 8 c #c61414",
" 9 c #e7cdcd",
" 0 c #efbdbd",
" q c #d28383",
" w c #c3c0c0",
" e c #dfbaba",
" r c #fefefe",
" t c #d34343",
" y c #c23636",
" u c #dcdcdc",
" i c #bdbdbd",
" p c #c86e6e",
" a c #cc3939",
" s c #f4d0d0",
" d c #d38888",
" f c #d0d0d0",
" g c #bbbbbb",
" h c #ca9a9a",
" j c #c71515",
" k c #edc4c4",
" l c #de7575",
" z c #d05656",
" x c #c2bcbc",
" c c #c1c1c1",
" v c #e6c3c3",
" b c #c91a1a",
" n c #d76565",
" m c #fcf4f4",
" M c #cb2323",
" N c #ce7272",
" B c #d4d4d4",
" V c #bcbcbc",
" C c #cf8888",
" Z c #c71a1a",
" A c #f8ebeb",
" S c #eaa6a6",
" D c #da9a9a",
" F c #f7f7f7",
" G c #c0c0c0",
" H c #dbdbdb",
" J c #e18c8c",
" K c #e19292",
" L c #d44a4a",
" P c #c21717",
" I c #f0e7e7",
" U c #c9c9c9",
" Y c #e5e5e5",
" T c #f8e3e3",
" R c #cb3535",
" E c #f5d6d6",
" W c #c81616",
" Q c #ca5a5a",
" ! c #c6c6c6",
" ~ c #eeeeee",
" ^ c #d65252",
" / c #ecc0c0",
" ( c #e59393",
" ) c #c91717",
" _ c #cba4a4",
" ` c #f6f6f6",
" ' c #ebadad",
" ] c #d98383",
" [ c #f2d2d2",
" { c #c12b2b",
" } c #d07b7b",
" | c #dadada",
".  c #fdfbfb",
".. c #cc4e4e",
".X c #bc2727",
".o c #e8cccc",
".O c #e8e8e8",
/* pixels */
"             . X X .            ",
"           o O + + @            ",
"           # $ + + + %   & *    ",
"           = + - ; + : > , >    ",
"         < 1 + 2 3 + 4 5 6      ",
"         7 + 8 9 0 q w e        ",
"       r t + y r u i p a r      ",
"       s $ + d f g h j + k      ",
"       l + z x g c v b + n      ",
"     m M + N B i g V C + Z A    ",
"     S + + D F G i H J + + K    ",
"     L + P I U c Y & T $ + R r  ",
"   E W + Q B ! ~       ^ + + /  ",
"   ( + ) _ 5 `         ' + + ]  ",
"   [ { } | >          . ...X.o  ",
"     *.O &                      "
};
